<svg xmlns="http://www.w3.org/2000/svg" xmlns:xlink="http://www.w3.org/1999/xlink" width="500" zoomAndPan="magnify" viewBox="0 0 375 374.999991" height="500" preserveAspectRatio="xMidYMid meet" version="1.0"><defs><clipPath id="bb9b44a3a5"><path d="M 71.855469 41.804688 L 159 41.804688 L 159 286 L 71.855469 286 Z M 71.855469 41.804688 " clip-rule="nonzero"/></clipPath><clipPath id="614145a6d5"><path d="M 171 89 L 258 89 L 258 333.554688 L 171 333.554688 Z M 171 89 " clip-rule="nonzero"/></clipPath><clipPath id="8439f877ae"><path d="M 287 51 L 302.855469 51 L 302.855469 67 L 287 67 Z M 287 51 " clip-rule="nonzero"/></clipPath></defs><g clip-path="url(#bb9b44a3a5)"><path fill="#ffffff" d="M 71.925781 178.945312 L 71.925781 148.5 C 78.097656 148.164062 82.75 147.230469 85.878906 145.707031 C 89.007812 144.183594 91.714844 141.628906 93.996094 138.03125 C 96.28125 134.4375 97.84375 129.9375 98.691406 124.523438 C 99.367188 120.464844 99.707031 113.402344 99.707031 103.335938 C 99.707031 86.933594 100.46875 75.492188 101.988281 69.023438 C 103.511719 62.554688 106.257812 57.351562 110.234375 53.421875 C 114.207031 49.488281 120.003906 46.382812 127.613281 44.097656 C 132.769531 42.574219 140.890625 41.816406 151.96875 41.816406 L 158.691406 41.816406 L 158.691406 72.132812 C 149.304688 72.132812 143.28125 72.664062 140.617188 73.71875 C 137.953125 74.777344 135.984375 76.378906 134.71875 78.535156 C 133.449219 80.695312 132.816406 84.394531 132.816406 89.636719 C 132.816406 94.964844 132.433594 105.070312 131.671875 119.957031 C 131.25 128.328125 130.152344 135.117188 128.375 140.316406 C 126.597656 145.515625 124.335938 149.808594 121.585938 153.191406 C 118.839844 156.574219 114.628906 160.085938 108.964844 163.722656 C 113.957031 166.597656 118.035156 169.957031 121.207031 173.804688 C 124.378906 177.652344 126.808594 182.324219 128.5 187.824219 C 130.191406 193.320312 131.292969 200.679688 131.796875 209.894531 C 132.390625 223.933594 132.6875 232.898438 132.6875 236.789062 C 132.6875 242.367188 133.363281 246.257812 134.71875 248.457031 C 136.070312 250.65625 138.121094 252.328125 140.871094 253.46875 C 143.617188 254.609375 149.558594 255.179688 158.691406 255.179688 L 158.691406 285.625 L 151.96875 285.625 C 140.550781 285.625 131.796875 284.714844 125.710938 282.898438 C 119.621094 281.082031 114.484375 278.054688 110.296875 273.828125 C 106.113281 269.597656 103.300781 264.375 101.863281 258.160156 C 100.421875 251.945312 99.707031 242.15625 99.707031 228.796875 C 99.707031 213.238281 99.027344 203.128906 97.675781 198.476562 C 95.816406 191.710938 93.003906 186.871094 89.238281 183.953125 C 85.476562 181.035156 79.703125 179.367188 71.925781 178.945312 " fill-opacity="1" fill-rule="nonzero"/></g><path fill="#eeb30d" d="M 264.375 104.972656 L 244.519531 104.972656 L 244.519531 85.117188 L 264.375 85.117188 L 264.375 104.972656 " fill-opacity="1" fill-rule="nonzero"/><path fill="#eeb30d" d="M 259.6875 144.679688 L 244.519531 144.679688 L 244.519531 129.511719 L 259.6875 129.511719 L 259.6875 144.679688 " fill-opacity="1" fill-rule="nonzero"/><g clip-path="url(#614145a6d5)"><path fill="#eeb30d" d="M 201.925781 120.144531 L 201.925781 104.972656 L 217.097656 104.972656 L 217.097656 120.144531 Z M 240.511719 191.066406 C 236.707031 188.148438 233.875 183.308594 232.015625 176.542969 C 230.992188 172.722656 230.382812 165.410156 230.183594 154.609375 L 217.097656 154.609375 L 217.097656 134.753906 L 229.894531 134.753906 C 229.578125 127.097656 228.910156 121.132812 227.890625 116.855469 C 226.410156 110.640625 223.597656 105.398438 219.457031 101.128906 C 215.3125 96.859375 210.195312 93.832031 204.105469 92.054688 C 198.015625 90.28125 189.265625 89.394531 177.847656 89.394531 L 171.125 89.394531 L 171.125 119.710938 C 180.679688 119.710938 186.832031 120.28125 189.582031 121.421875 C 192.328125 122.566406 194.230469 124.195312 195.292969 126.308594 C 196.347656 128.421875 196.917969 132.648438 197.003906 138.992188 C 197.425781 159.121094 198.101562 172.144531 199.03125 178.0625 C 200.46875 186.691406 203.175781 193.792969 207.152344 199.375 C 210.023438 203.265625 214.589844 207.238281 220.851562 211.296875 C 216.03125 214.089844 212.074219 217.324219 208.992188 221.003906 C 205.902344 224.683594 203.429688 229.164062 201.570312 234.449219 C 199.710938 239.734375 198.566406 246.777344 198.144531 255.570312 C 197.46875 270.117188 197.109375 279.964844 197.066406 285.125 C 197.023438 290.285156 196.347656 293.941406 195.035156 296.101562 C 193.722656 298.257812 191.675781 299.90625 188.882812 301.046875 C 186.09375 302.191406 180.171875 302.761719 171.125 302.761719 L 171.125 333.207031 L 177.847656 333.207031 C 188.925781 333.207031 197.042969 332.441406 202.203125 330.921875 C 209.898438 328.636719 215.730469 325.53125 219.710938 321.597656 C 223.683594 317.664062 226.410156 312.441406 227.890625 305.929688 C 229.371094 299.417969 230.113281 287.960938 230.113281 271.550781 C 230.113281 261.574219 230.449219 254.554688 231.125 250.496094 C 232.054688 245.085938 233.640625 240.582031 235.882812 236.988281 C 238.121094 233.394531 240.808594 230.835938 243.9375 229.3125 C 247.066406 227.789062 251.71875 226.859375 257.894531 226.519531 L 257.894531 196.074219 C 250.109375 195.652344 244.320312 193.980469 240.511719 191.066406 " fill-opacity="1" fill-rule="nonzero"/></g><g clip-path="url(#8439f877ae)"><path fill="#eeb30d" d="M 303.085938 66.410156 L 287.917969 66.410156 L 287.917969 51.242188 L 303.085938 51.242188 L 303.085938 66.410156 " fill-opacity="1" fill-rule="nonzero"/></g><path fill="#eeb30d" d="M 227.023438 85.117188 L 198.707031 85.117188 L 198.707031 56.800781 L 227.023438 56.800781 L 227.023438 85.117188 " fill-opacity="1" fill-rule="nonzero"/></svg>